<svg aria-hidden="true" style="position: absolute; width: 0; height: 0; overflow: hidden;" version="1.1" xmlns="http://www.w3.org/2000/svg" xmlns:xlink="http://www.w3.org/1999/xlink">
<defs>
<symbol id="icon-arrow-left" viewBox="0 0 32 32">
<path fill="#fff" style="fill: var(--color1, #fff)" d="M30 16c0-0.265-0.105-0.52-0.293-0.707s-0.442-0.293-0.707-0.293h-23.586l6.294-6.292c0.188-0.188 0.293-0.442 0.293-0.708s-0.105-0.52-0.293-0.708c-0.188-0.188-0.442-0.293-0.708-0.293s-0.52 0.106-0.708 0.293l-8 8c-0.093 0.093-0.167 0.203-0.217 0.325s-0.076 0.252-0.076 0.383c0 0.132 0.026 0.262 0.076 0.383s0.124 0.232 0.217 0.325l8 8c0.188 0.188 0.442 0.293 0.708 0.293s0.52-0.105 0.708-0.293c0.188-0.188 0.293-0.442 0.293-0.708s-0.105-0.52-0.293-0.708l-6.294-6.292h23.586c0.265 0 0.52-0.105 0.707-0.293s0.293-0.442 0.293-0.707z"></path>
</symbol>
<symbol id="icon-link" viewBox="0 0 32 32">
<path fill="#fff" style="fill: var(--color1, #fff)" d="M1.143 0h10.286v2.286h-9.143v27.429h27.429v-9.143h2.286v10.286l-1.143 1.143h-29.714l-1.143-1.143v-29.714l1.143-1.143z"></path>
<path fill="#fff" style="fill: var(--color1, #fff)" d="M32 1.143v14.857h-2.286v-12.098l-15.445 15.447-1.616-1.618 15.445-15.445h-12.098v-2.286h14.857l1.143 1.143z"></path>
</symbol>
<symbol id="icon-play" viewBox="0 0 32 32">
<path fill="#fff" style="fill: var(--color1, #fff)" d="M7.148 27.8c-0.261 0-0.511-0.104-0.695-0.288s-0.288-0.434-0.288-0.695v-21.633c0-0.171 0.045-0.339 0.129-0.487s0.207-0.272 0.354-0.359c0.147-0.087 0.314-0.134 0.485-0.137s0.339 0.039 0.489 0.122l19.667 10.817c0.154 0.085 0.283 0.21 0.372 0.361s0.137 0.324 0.137 0.5c0 0.176-0.047 0.349-0.137 0.5s-0.218 0.276-0.372 0.361l-19.667 10.817c-0.145 0.080-0.308 0.122-0.474 0.122z"></path>
</symbol>
</defs>
</svg>
