<svg width="18" height="18" viewBox="0 0 18 18" fill="none" xmlns="http://www.w3.org/2000/svg">
<path d="M4.02078 15.6375C3.87408 15.6375 3.73339 15.5792 3.62966 15.4754C3.52593 15.3717 3.46765 15.231 3.46765 15.0843V2.91558C3.46767 2.81946 3.49273 2.72501 3.54037 2.64153C3.58801 2.55805 3.65658 2.48842 3.73932 2.43951C3.82206 2.3906 3.91612 2.3641 4.01223 2.36261C4.10833 2.36113 4.20317 2.38471 4.28738 2.43104L15.3499 8.51542C15.4366 8.56317 15.5089 8.63331 15.5593 8.71854C15.6097 8.80377 15.6362 8.90096 15.6362 8.99995C15.6362 9.09895 15.6097 9.19614 15.5593 9.28137C15.5089 9.3666 15.4366 9.43674 15.3499 9.48449L4.28738 15.5689C4.20571 15.6138 4.11401 15.6374 4.02078 15.6375Z" fill="white"/>
</svg>
